<?xml version="1.0" standalone="no"?>
<!DOCTYPE svg PUBLIC "-//W3C//DTD SVG 20010904//EN"
 "http://www.w3.org/TR/2001/REC-SVG-20010904/DTD/svg10.dtd">
<svg version="1.0" xmlns="http://www.w3.org/2000/svg"
 width="267.000000pt" height="243.000000pt" viewBox="0 0 267.000000 243.000000"
 preserveAspectRatio="xMidYMid meet">

<g transform="translate(0.000000,243.000000) scale(0.100000,-0.100000)"
fill="#000000" stroke="none">
<path d="M1392 2058 c-16 -26 -52 -127 -52 -145 0 -2 34 -3 75 -3 l75 0 -6 28
c-17 78 -49 152 -65 152 -4 0 -16 -15 -27 -32z"/>
<path d="M1046 2005 c-19 -75 -21 -125 -5 -125 7 0 40 5 75 12 58 10 64 14 58
32 -12 42 -87 146 -105 146 -3 0 -14 -29 -23 -65z"/>
<path d="M450 2021 c-5 -11 -10 -26 -10 -34 0 -8 -11 -22 -25 -31 -35 -23 -36
-82 0 -96 13 -5 31 -23 40 -39 17 -34 49 -55 71 -47 8 3 14 3 14 1 0 -2 -29
-49 -65 -104 -69 -104 -72 -117 -59 -215 7 -45 7 -46 26 -29 10 9 28 31 39 49
18 29 19 38 8 73 -11 37 -10 43 24 103 20 34 52 85 71 113 20 27 36 56 36 62
0 7 5 13 10 13 18 0 50 64 50 101 0 43 -12 55 -69 68 -24 5 -48 14 -54 20 -6
6 -30 11 -54 11 -32 0 -45 -5 -53 -19z m134 -73 c3 -13 0 -37 -6 -55 -10 -28
-14 -30 -35 -20 -17 8 -27 7 -35 -1 -17 -17 -23 -15 -36 13 -22 49 -16 62 36
73 69 14 69 14 76 -10z m-41 -95 c3 -5 -6 -9 -19 -9 -13 -1 -21 2 -18 7 6 11
31 12 37 2z"/>
<path d="M535 1941 c-3 -5 0 -13 6 -17 8 -5 9 -3 4 6 -6 10 -4 12 9 7 10 -4
15 -3 11 3 -8 13 -22 13 -30 1z"/>
<path d="M486 1925 c4 -8 7 -15 9 -15 2 0 5 7 9 15 3 9 0 15 -9 15 -9 0 -12
-6 -9 -15z"/>
<path d="M1739 2018 c-28 -30 -64 -87 -73 -115 -6 -20 -4 -23 17 -23 13 0 44
-7 67 -15 23 -8 44 -15 46 -15 2 0 4 20 4 45 0 55 -19 145 -30 145 -5 0 -19
-10 -31 -22z"/>
<path d="M2245 1990 c-12 -13 -25 -17 -44 -14 -62 13 -73 -63 -17 -112 20 -17
36 -39 36 -48 0 -21 35 -56 58 -56 9 0 30 11 46 25 16 14 39 25 50 25 75 0 88
92 17 115 -11 3 -37 24 -59 45 -45 45 -61 49 -87 20z m75 -73 c21 -11 24 -19
22 -47 -5 -45 -19 -61 -36 -38 -12 16 -15 16 -35 1 -28 -19 -40 -9 -48 41 -4
27 -2 41 8 47 20 13 60 11 89 -4z m-13 -112 c2 -6 -9 -10 -24 -9 -40 3 -40 3
-23 14 18 12 42 9 47 -5z"/>
<path d="M2248 1903 c6 -2 18 -2 25 0 6 3 1 5 -13 5 -14 0 -19 -2 -12 -5z"/>
<path d="M2295 1901 c-3 -5 2 -11 10 -15 8 -3 17 -1 20 3 3 5 -2 11 -10 15 -8
3 -17 1 -20 -3z"/>
<path d="M768 1903 c20 -49 37 -90 38 -91 5 -8 74 20 74 30 0 11 -130 148
-141 148 -4 0 9 -39 29 -87z"/>
<path d="M2001 1890 c-39 -39 -71 -74 -71 -79 0 -4 16 -13 35 -19 l36 -10 40
85 c21 48 37 88 35 90 -2 2 -36 -28 -75 -67z"/>
<path d="M263 1920 c3 -12 -1 -23 -10 -28 -11 -7 -13 -19 -8 -55 6 -40 11 -47
30 -47 23 0 23 2 19 66 -2 36 -6 70 -10 75 -10 17 -26 9 -21 -11z"/>
<path d="M656 1804 c-3 -9 -6 -28 -6 -44 0 -19 -9 -36 -26 -49 -18 -14 -22
-21 -11 -21 8 0 17 -4 19 -10 2 -6 24 -4 58 5 30 8 61 15 68 15 10 0 13 -89
11 -456 l-1 -456 40 -81 c112 -226 344 -357 629 -357 111 0 196 20 300 71 141
67 249 185 299 325 24 64 24 69 24 479 l0 414 32 -10 c47 -13 65 -11 72 8 5
11 -2 24 -20 38 -22 18 -26 27 -22 59 l4 38 -35 -7 c-60 -10 -91 -26 -97 -51
-3 -13 -11 -24 -18 -25 -31 -2 -527 3 -543 6 -10 2 -161 4 -337 4 -276 1 -317
3 -306 15 15 19 9 57 -10 66 -8 4 -29 15 -47 24 -39 20 -69 21 -77 0z m574
-288 c0 -45 27 -56 110 -44 41 6 87 19 101 29 l26 18 17 -36 c15 -32 15 -37 1
-53 -20 -22 -19 -59 1 -67 9 -3 37 1 61 10 43 16 43 16 87 -13 30 -20 61 -32
102 -36 51 -6 65 -12 106 -50 26 -24 56 -44 67 -44 10 0 22 -7 25 -17 13 -32
-14 -79 -74 -129 -43 -35 -60 -56 -60 -73 0 -46 -34 -133 -57 -148 -13 -9 -23
-20 -23 -26 0 -18 -34 -36 -67 -37 -18 0 -55 -14 -83 -30 -28 -17 -55 -30 -60
-30 -6 0 -10 -16 -10 -36 0 -28 -10 -47 -46 -90 l-46 -54 -36 30 c-20 17 -42
30 -49 30 -24 0 -13 18 35 59 42 36 46 43 35 61 -7 11 -13 26 -13 34 0 21 -52
76 -72 76 -20 0 -33 38 -24 68 10 30 -20 90 -46 94 -16 2 -24 11 -26 29 -3 26
-16 34 -108 69 -13 5 -24 21 -27 39 -8 36 -28 40 -64 11 -14 -11 -36 -20 -49
-20 -17 0 -24 6 -24 20 0 22 -12 25 -40 10 -15 -8 -23 -5 -39 16 -17 21 -18
30 -9 48 18 35 40 56 60 56 23 0 40 42 37 90 -2 20 0 41 5 48 4 7 5 16 1 21
-9 15 48 18 71 4 18 -11 28 -10 67 7 43 19 62 40 36 40 -28 0 2 26 42 36 52
13 59 10 59 -20z m300 -115 c0 -12 -29 -23 -41 -15 -5 3 -7 10 -4 15 8 12 45
12 45 0z"/>
<path d="M359 1734 c-19 -22 -54 -126 -68 -204 -9 -49 -7 -60 14 -105 25 -51
65 -89 65 -61 0 7 8 24 18 36 15 18 17 30 10 59 -4 20 -11 94 -15 165 -7 120
-9 127 -24 110z"/>
<path d="M2310 1678 c-45 -80 -70 -125 -80 -147 -3 -8 -16 -15 -27 -16 -12 -1
-42 -18 -66 -38 -37 -30 -45 -43 -50 -79 -2 -24 -8 -51 -12 -60 -5 -12 1 -21
22 -31 36 -19 63 -6 63 28 0 14 6 25 14 25 7 0 30 11 50 25 30 21 49 25 105
25 l68 0 -4 -42 c-3 -24 -1 -39 3 -35 5 5 9 41 9 80 1 40 -1 64 -3 55 -3 -15
-15 -18 -72 -18 -68 0 -68 0 -72 30 -3 22 2 36 19 52 32 30 107 183 100 202
-11 29 -25 17 -67 -56z"/>
<path d="M2431 1575 c-1 -77 -4 -157 -7 -177 -12 -72 43 -54 77 24 14 34 -11
169 -46 243 l-23 50 -1 -140z"/>
<path d="M620 1479 c-25 -4 -64 -8 -87 -8 -32 -1 -45 -6 -53 -21 -10 -19 -7
-20 42 -22 114 -4 168 10 168 43 0 20 -2 21 -70 8z"/>
<path d="M675 1428 c-4 -9 -4 -22 0 -28 3 -5 1 -10 -4 -10 -16 0 -13 -38 2
-47 20 -11 30 -70 13 -76 -33 -13 -68 7 -112 64 -66 86 -86 81 -124 -31 -19
-55 -21 -78 -16 -148 3 -46 12 -95 20 -110 7 -16 11 -45 8 -70 -3 -30 1 -50
14 -70 22 -33 84 -153 84 -163 0 -20 -54 -69 -76 -69 -16 0 -24 -6 -24 -17 0
-14 -2 -15 -9 -4 -7 11 -15 10 -45 -4 -60 -28 -67 -47 -44 -107 16 -43 17 -49
3 -38 -18 15 -161 8 -178 -9 -6 -6 13 -26 57 -57 36 -26 66 -50 66 -54 0 -3
-30 -28 -66 -55 -50 -36 -62 -50 -51 -56 8 -5 63 -11 123 -15 109 -7 217 6
230 27 3 5 7 27 9 49 4 35 1 43 -26 62 -26 20 -28 23 -12 30 28 11 117 9 152
-3 31 -11 31 -12 12 -25 -11 -8 -25 -30 -31 -48 -9 -29 -8 -39 4 -58 84 -128
492 -230 861 -215 239 10 432 61 562 149 72 49 79 70 38 129 -13 20 -21 39
-18 43 8 8 121 8 162 0 31 -7 44 -24 17 -24 -42 0 -62 -102 -27 -134 33 -30
109 -46 210 -45 141 1 143 2 76 76 -30 34 -55 64 -55 67 0 3 32 27 71 53 46
31 66 49 57 54 -7 4 -48 15 -91 24 -65 14 -77 20 -72 34 21 53 17 67 -19 86
-20 11 -36 24 -36 30 0 5 -22 24 -48 40 -27 17 -48 39 -50 51 -2 11 11 46 28
78 16 32 30 66 30 76 0 11 5 22 10 25 6 3 10 21 10 38 0 18 5 39 10 47 7 10
10 -9 10 -62 0 -60 3 -78 14 -78 11 0 15 30 17 148 5 171 -4 310 -16 274 -11
-33 -25 -23 -57 38 -15 30 -36 63 -47 73 -19 19 -20 19 -41 -32 -37 -85 -102
-122 -161 -91 -17 10 -19 7 -19 -32 0 -24 7 -68 15 -98 17 -64 19 -116 5 -125
-15 -9 -12 -71 4 -84 11 -10 13 -28 9 -81 -4 -44 -2 -74 5 -82 16 -20 3 -98
-17 -98 -23 -1 -87 -25 -115 -43 -23 -16 -23 -17 -11 -72 l13 -56 -51 -23
c-224 -99 -476 -136 -695 -102 -114 17 -277 68 -371 116 l-61 30 3 63 2 62
-43 21 c-23 11 -40 23 -36 26 9 10 11 257 2 312 -9 54 -2 78 8 27 15 -74 12
-13 -7 145 -11 93 -19 185 -17 204 2 19 -1 35 -5 35 -5 0 -15 14 -22 30 -10
25 -14 27 -20 13z m1715 -409 c-9 -20 -10 -15 -5 25 3 27 6 76 7 110 2 49 3
44 5 -25 2 -47 -1 -96 -7 -110z m-413 -743 c-2 -6 -7 4 -12 23 -5 25 -10 30
-16 20 -7 -11 -9 -9 -9 7 0 37 14 36 27 -2 7 -21 12 -43 10 -48z m-1127 34 c0
-13 -7 -20 -19 -20 -11 0 -22 -6 -24 -12 -3 -7 -6 3 -6 23 -1 20 2 39 5 42 12
11 44 -13 44 -33z m1075 10 c3 -11 11 -20 16 -20 5 0 9 -10 8 -22 l0 -23 -9
23 c-13 31 -23 28 -16 -5 5 -28 5 -28 -9 2 -16 35 -19 65 -6 65 5 0 13 -9 16
-20z m-1020 -54 c6 -35 5 -38 -9 -27 -9 7 -23 11 -31 7 -19 -7 -19 -4 0 41 18
42 29 36 40 -21z m983 13 c23 -39 23 -41 4 -35 -14 5 -24 1 -31 -11 -8 -14
-10 -7 -11 35 0 28 3 52 8 52 4 0 18 -19 30 -41z m-923 11 c16 -7 17 -9 3 -9
-12 -1 -18 -12 -21 -38 l-4 -38 -1 42 c-1 23 -8 44 -14 46 -9 4 -8 5 2 6 8 0
24 -4 35 -9z m859 -21 c10 -51 8 -65 -6 -51 -13 13 -20 82 -8 82 4 0 10 -14
14 -31z m-34 1 c7 -14 7 -20 0 -20 -6 0 -8 -11 -5 -27 4 -22 4 -24 -3 -8 -26
59 -19 106 8 55z m-763 2 c6 -4 11 -24 10 -44 -1 -34 -17 -45 -17 -12 0 20
-18 18 -23 -3 -3 -10 -5 1 -6 25 -1 42 9 51 36 34z m718 -2 c3 -5 -3 -10 -14
-10 -16 0 -21 -6 -21 -24 0 -27 14 -41 31 -30 8 4 7 9 -2 15 -7 4 -10 11 -6
15 11 12 30 -13 24 -30 -10 -26 -46 -19 -57 10 -13 32 -13 30 6 48 18 18 30
20 39 6z m-672 -47 c-8 -52 -13 -54 -13 -5 0 23 4 42 9 42 6 0 7 -17 4 -37z
m600 2 c21 -44 21 -44 -3 -38 -11 3 -20 0 -20 -6 0 -6 -3 -11 -8 -11 -4 0 -6
20 -4 45 2 25 7 45 11 45 4 0 15 -16 24 -35z m-533 -16 c6 -23 9 -44 6 -47 -3
-3 -6 0 -6 7 0 9 -9 12 -25 9 -22 -5 -25 -2 -19 16 3 11 8 29 10 39 9 29 23
19 34 -24z m470 14 c0 -26 -1 -26 -14 -8 -14 20 -12 35 5 35 5 0 9 -12 9 -27z
m-420 3 c0 -22 -26 -26 -27 -5 -1 11 5 19 13 19 8 0 14 -6 14 -14z m40 -13 c0
-22 -2 -25 -10 -13 -13 20 -13 40 0 40 6 0 10 -12 10 -27z m334 11 c3 -8 2
-12 -4 -9 -6 4 -8 -7 -5 -27 4 -29 4 -30 -4 -8 -12 34 -13 60 -2 60 5 0 12 -7
15 -16z m-254 -4 c-13 -9 -13 -11 0 -21 11 -8 12 -12 3 -16 -7 -2 -13 -12 -14
-21 -1 -25 -17 16 -18 46 -1 16 5 22 22 22 18 0 19 -2 7 -10z m68 3 c-10 -2
-18 -11 -18 -18 0 -9 6 -12 15 -9 8 4 15 1 15 -5 0 -6 -7 -11 -15 -11 -8 0
-15 -4 -15 -10 0 -5 9 -10 20 -10 11 0 20 -4 20 -10 0 -5 -11 -10 -25 -10 -15
0 -25 6 -25 14 0 7 -3 28 -6 45 -6 29 -5 31 22 30 17 -1 22 -3 12 -6z m77 -4
c4 -6 0 -9 -11 -7 -14 2 -19 -3 -19 -22 0 -21 4 -25 25 -22 23 2 24 2 8 -14
-14 -14 -20 -15 -32 -4 -16 12 -22 61 -9 73 10 10 31 8 38 -4z m44 -49 c0 -23
-1 -23 -9 -5 -5 11 -9 31 -9 45 0 23 1 23 9 5 5 -11 9 -31 9 -45z m-289 4 c0
-8 -4 -12 -10 -9 -5 3 -10 13 -10 21 0 8 5 12 10 9 6 -3 10 -13 10 -21z m380
4 c0 -19 -2 -20 -10 -8 -13 19 -13 30 0 30 6 0 10 -10 10 -22z m-413 -10 c-3
-8 -6 -5 -6 6 -1 11 2 17 5 13 3 -3 4 -12 1 -19z m440 0 c-3 -8 -6 -5 -6 6 -1
11 2 17 5 13 3 -3 4 -12 1 -19z m-380 -10 c-3 -8 -6 -5 -6 6 -1 11 2 17 5 13
3 -3 4 -12 1 -19z"/>
<path d="M820 315 c0 -8 5 -15 10 -15 6 0 10 7 10 15 0 8 -4 15 -10 15 -5 0
-10 -7 -10 -15z"/>
<path d="M877 285 c-4 -8 -2 -17 3 -20 6 -4 10 3 10 14 0 25 -6 27 -13 6z"/>
<path d="M1860 276 c0 -9 5 -16 10 -16 6 0 10 4 10 9 0 6 -4 13 -10 16 -5 3
-10 -1 -10 -9z"/>
<path d="M1000 256 c0 -9 7 -16 16 -16 17 0 14 22 -4 28 -7 2 -12 -3 -12 -12z"/>
<path d="M1650 216 c0 -9 5 -16 10 -16 6 0 10 4 10 9 0 6 -4 13 -10 16 -5 3
-10 -1 -10 -9z"/>
<path d="M1114 219 c-3 -6 -1 -16 5 -22 8 -8 11 -5 11 11 0 24 -5 28 -16 11z"/>
<path d="M380 1220 c-12 -8 -11 -16 8 -56 13 -25 24 -45 26 -43 5 8 -6 109
-12 109 -4 0 -14 -5 -22 -10z"/>
<path d="M2431 1018 c0 -31 4 -60 9 -63 6 -3 10 -39 10 -78 1 -47 6 -79 15
-91 13 -17 15 -18 15 -3 0 9 -4 17 -9 17 -5 0 -12 35 -15 78 -3 42 -9 104 -14
137 l-9 60 -2 -57z"/>
<path d="M2405 803 c2 -10 4 -51 4 -90 1 -44 5 -73 12 -73 5 0 8 4 5 8 -3 5
-6 43 -7 85 -1 43 -5 80 -10 82 -4 3 -6 -3 -4 -12z"/>
<path d="M2481 754 c-1 -6 8 -36 18 -67 l20 -57 -27 -2 c-15 -1 -37 -2 -49 -3
-12 0 -26 -5 -30 -9 -7 -7 107 1 114 8 2 1 -8 34 -21 72 -14 38 -25 64 -25 58z"/>
</g>
</svg>
