<svg width="42" height="24" viewBox="0 0 42 24" fill="none" xmlns="http://www.w3.org/2000/svg">
<path fill-rule="evenodd" clip-rule="evenodd" d="M1.68151 0.992414C2.57537 0.444319 3.87611 0.633634 4.58678 1.41526L22.6448 21.2762C23.3555 22.0578 23.207 23.1357 22.3131 23.6838C21.4192 24.2319 20.1185 24.0426 19.4078 23.261L1.3498 3.40009C0.63913 2.61846 0.787638 1.54051 1.68151 0.992414Z" fill="black"/>
<path fill-rule="evenodd" clip-rule="evenodd" d="M40.7185 0.992413C39.8246 0.444319 38.5239 0.633634 37.8132 1.41526L19.7552 21.2762C19.0445 22.0578 19.193 23.1357 20.0869 23.6838C20.9808 24.2319 22.2815 24.0426 22.9922 23.261L41.0502 3.40009C41.7609 2.61846 41.6124 1.54051 40.7185 0.992413Z" fill="black"/>
</svg>
